<svg width="1024" height="1024" viewBox="0 0 1024 1024" fill="none" xmlns="http://www.w3.org/2000/svg">
<g clip-path="url(#clip0_426_17)">
<path d="M550.164 453.559C603.337 453.559 633.353 427.776 633.353 383.945C633.353 339.255 602.479 313.472 550.164 313.472H443.538H373.494V453.559H443.538H550.164Z" fill="#2C4569"/>
<path d="M557.883 709.669C616.201 709.669 651.363 678.729 651.363 629.742C651.363 580.754 616.201 552.393 557.883 552.393H452.132H373.494V709.669H452.132H557.883Z" fill="#2C4569"/>
<path fill-rule="evenodd" clip-rule="evenodd" d="M0 160C0 71.6344 71.6344 0 160 0H864C952.366 0 1024 71.6344 1024 160V864C1024 952.366 952.366 1024 864 1024H160C71.6344 1024 0 952.366 0 864V160ZM256 747.483C256 789.595 279.156 812.8 322.037 812.8H547.591C687.384 812.8 768 750.062 768 643.493C768 635.594 767.473 627.846 766.444 620.289C758.226 559.94 749.99 431.959 749.99 371.054C749.99 271.36 672.804 211.2 547.591 211.2H322.037C279.156 211.2 256 234.405 256 276.517V747.483Z" fill="#2C4569"/>
<path d="M749.99 371.054C749.99 429.495 721.688 476.763 673.662 500.827C724.69 520.379 758.647 564.935 766.338 619.526C766.374 619.78 766.409 620.034 766.444 620.289C758.226 559.94 749.99 431.959 749.99 371.054Z" fill="#2C4569"/>
<path fill-rule="evenodd" clip-rule="evenodd" d="M0 160C0 71.6344 71.6344 0 160 0H864C952.366 0 1024 71.6344 1024 160V864C1024 952.366 952.366 1024 864 1024H160C71.6344 1024 0 952.366 0 864V160ZM256 747.483C256 789.595 279.156 812.8 322.037 812.8H547.591C687.384 812.8 768 750.062 768 643.493C768 635.594 767.473 627.846 766.444 620.289C758.226 559.94 749.99 431.959 749.99 371.054C749.99 271.36 672.804 211.2 547.591 211.2H322.037C279.156 211.2 256 234.405 256 276.517V747.483Z" fill="#2C4569"/>
<g filter="url(#filter0_i_426_17)">
<path fill-rule="evenodd" clip-rule="evenodd" d="M322.037 812.6C279.156 812.6 256 789.395 256 747.283V276.317C256 234.205 279.156 211 322.037 211H547.591C672.804 211 749.99 271.16 749.99 370.854C749.99 429.295 721.688 476.563 673.662 500.627C724.69 520.179 758.647 564.735 766.338 619.326C766.374 619.58 766.409 619.834 766.444 620.089C767.473 627.646 768 635.394 768 643.293C768 749.862 687.384 812.6 547.591 812.6H322.037ZM651.363 629.542C651.363 678.529 616.201 709.469 557.883 709.469H452.132H373.494V552.193H452.132H557.883C616.201 552.193 651.363 580.554 651.363 629.542ZM633.353 383.745C633.353 427.576 603.337 453.359 550.164 453.359H443.538H373.494V313.272H443.538H550.164C602.479 313.272 633.353 339.055 633.353 383.745Z" fill="#D9D9D9"/>
</g>
</g>
<defs>
<filter id="filter0_i_426_17" x="256" y="211" width="513.5" height="603.1" filterUnits="userSpaceOnUse" color-interpolation-filters="sRGB">
<feFlood flood-opacity="0" result="BackgroundImageFix"/>
<feBlend mode="normal" in="SourceGraphic" in2="BackgroundImageFix" result="shape"/>
<feColorMatrix in="SourceAlpha" type="matrix" values="0 0 0 0 0 0 0 0 0 0 0 0 0 0 0 0 0 0 127 0" result="hardAlpha"/>
<feOffset dx="2" dy="2"/>
<feGaussianBlur stdDeviation="0.75"/>
<feComposite in2="hardAlpha" operator="arithmetic" k2="-1" k3="1"/>
<feColorMatrix type="matrix" values="0 0 0 0 0 0 0 0 0 0 0 0 0 0 0 0 0 0 0.5 0"/>
<feBlend mode="normal" in2="shape" result="effect1_innerShadow_426_17"/>
</filter>
<clipPath id="clip0_426_17">
<rect width="1024" height="1024" fill="white"/>
</clipPath>
</defs>
</svg>
